<svg width="60" height="60" viewBox="0 0 60 60" fill="none" xmlns="http://www.w3.org/2000/svg">
<g clip-path="url(#clip0_42_136)">
<path d="M53.824 60H6.176C2.764 60 0 57.236 0 53.824V6.176C0 2.764 2.764 0 6.176 0H53.824C57.236 0 60 2.764 60 6.176V53.824C60 57.236 57.236 60 53.824 60Z" fill="#26914A"/>
<mask id="mask0_42_136" style="mask-type:alpha" maskUnits="userSpaceOnUse" x="0" y="0" width="60" height="60">
<path d="M53.824 60H6.176C2.764 60 0 57.236 0 53.824V6.176C0 2.764 2.764 0 6.176 0H53.824C57.236 0 60 2.764 60 6.176V53.824C60 57.236 57.236 60 53.824 60Z" fill="#26914A"/>
</mask>
<g mask="url(#mask0_42_136)">
<path d="M27.9213 60.4628L9.01074 41.5628L10.0596 39.3076L11.2355 20.757L20.7424 18.386L24.7112 22.2817L26.3321 20.36H34.7386L39.6172 25.2358L44.5752 19.8676L49.7348 19.5645L61.1021 31.2159V40.197V60.4628H27.9213Z" fill="#096328"/>
<path d="M36.325 24.9003C36.325 21.1064 33.5851 18.4563 29.6633 18.4563H23.7139V41.5401H29.6633C33.587 41.5401 36.3269 38.9033 36.3269 35.1286C36.3269 32.8889 35.3302 31.0407 33.5717 29.9791C35.3512 28.9232 36.325 27.138 36.325 24.9003ZM27.5688 28.1003V22.1222H29.3387C30.8968 22.1222 32.47 23.0425 32.47 25.095C32.47 27.1705 30.8968 28.1003 29.3387 28.1003H27.5688ZM32.47 34.804C32.47 36.9138 30.8471 37.8742 29.3387 37.8742H27.5688V31.7662H29.3387C31.502 31.7662 32.47 33.2918 32.47 34.804Z" fill="white"/>
<path d="M9.08838 41.5401H12.9433V31.7013H20.7926V28.0354H12.9433V22.1222H20.7926V18.4563H9.08838V41.5401Z" fill="white"/>
<path d="M46.8208 28.5814L45.6523 28.0296C43.5177 27.031 42.5668 25.9255 42.5668 24.4458C42.5668 22.5823 44.0217 21.7326 45.3735 21.7326C47.0785 21.7326 48.4113 23.0577 48.4724 24.8124L48.4819 25.0778H52.1402L52.1344 24.799C52.0638 20.9364 49.2342 18.1335 45.406 18.1335C41.5892 18.1335 38.71 20.8753 38.71 24.5126C38.71 27.4663 40.5658 29.7804 44.226 31.3881L45.4919 31.9399C47.5253 32.8239 48.4724 33.9504 48.4724 35.4874C48.4724 37.1562 47.3573 38.233 45.6332 38.233C44.1649 38.233 42.4389 37.3089 42.4045 34.7046L42.4007 34.4335H38.71V35.1304C38.71 39.0331 41.5797 41.8665 45.5358 41.8665C49.4079 41.8665 52.3292 39.1094 52.3292 35.455C52.3292 31.6688 49.385 29.7938 46.8208 28.5814Z" fill="white"/>
</g>
</g>
<defs>
<clipPath id="clip0_42_136">
<rect width="60" height="60" fill="white"/>
</clipPath>
</defs>
</svg>
